<svg width="64" height="64" viewBox="0 0 64 64" fill="none" xmlns="http://www.w3.org/2000/svg">
<path d="M7.99967 42.6667V19.2C7.99967 16.2131 7.99967 14.7196 8.58097 13.5787C9.0923 12.5752 9.90819 11.7593 10.9117 11.248C12.0526 10.6667 13.5461 10.6667 16.533 10.6667H47.4663C50.4533 10.6667 51.9468 10.6667 53.0876 11.248C54.0912 11.7593 54.9071 12.5752 55.4184 13.5787C55.9997 14.7196 55.9997 16.2131 55.9997 19.2V42.6667H41.767C41.1147 42.6667 40.7886 42.6667 40.4817 42.7404C40.2096 42.8057 39.9495 42.9134 39.7109 43.0596C39.4418 43.2246 39.2112 43.4552 38.75 43.9164L38.5827 44.0837C38.1215 44.5449 37.8909 44.7755 37.6218 44.9404C37.3832 45.0866 37.1231 45.1943 36.851 45.2597C36.5441 45.3334 36.2179 45.3334 35.5657 45.3334H28.4337C27.7814 45.3334 27.4553 45.3334 27.1484 45.2597C26.8763 45.1943 26.6162 45.0866 26.3776 44.9404C26.1085 44.7755 25.8779 44.5449 25.4167 44.0837L25.2494 43.9164C24.7881 43.4552 24.5575 43.2246 24.2884 43.0596C24.0498 42.9134 23.7897 42.8057 23.5176 42.7404C23.2107 42.6667 22.8846 42.6667 22.2324 42.6667H7.99967ZM7.99967 42.6667C6.52692 42.6667 5.33301 43.8606 5.33301 45.3334V46.2222C5.33301 47.8755 5.33301 48.7022 5.51474 49.3804C6.00789 51.2209 7.44548 52.6585 9.28597 53.1516C9.96419 53.3334 10.7908 53.3334 12.4441 53.3334H51.5552C53.2085 53.3334 54.0352 53.3334 54.7134 53.1516C56.5539 52.6585 57.9915 51.2209 58.4846 49.3804C58.6663 48.7022 58.6663 47.8755 58.6663 46.2222C58.6663 45.3956 58.6663 44.9823 58.5755 44.6432C58.3289 43.7229 57.6101 43.0041 56.6899 42.7575C56.3508 42.6667 55.9374 42.6667 55.1108 42.6667H53.333" stroke="#5E5E5E" stroke-width="2" stroke-linecap="round" stroke-linejoin="round"/>
</svg>
