<svg width="64" height="64" viewBox="0 0 64 64" fill="none" xmlns="http://www.w3.org/2000/svg">
<path d="M26.6663 47.0895V53.3333C26.6663 56.2788 29.0542 58.6666 31.9997 58.6666C34.9452 58.6666 37.333 56.2788 37.333 53.3333V47.0895M31.9997 5.33331V7.99998M7.99967 32H5.33301M14.6663 14.6666L13.0661 13.0664M49.333 14.6666L50.9337 13.0664M58.6663 32H55.9997M47.9997 32C47.9997 40.8365 40.8362 48 31.9997 48C23.1631 48 15.9997 40.8365 15.9997 32C15.9997 23.1634 23.1631 16 31.9997 16C40.8362 16 47.9997 23.1634 47.9997 32Z" stroke="#5E5E5E" stroke-width="2" stroke-linecap="round" stroke-linejoin="round"/>
</svg>
