<svg width="64" height="64" viewBox="0 0 64 64" fill="none" xmlns="http://www.w3.org/2000/svg">
<path d="M19.9997 12C19.9997 8.31808 22.9844 5.33331 26.6663 5.33331C30.3482 5.33331 33.333 8.31808 33.333 12V16H35.9997C39.7272 16 41.591 16 43.0611 16.6089C45.0214 17.4209 46.5788 18.9783 47.3907 20.9385C47.9997 22.4087 47.9997 24.2724 47.9997 28H51.9997C55.6816 28 58.6663 30.9847 58.6663 34.6666C58.6663 38.3485 55.6816 41.3333 51.9997 41.3333H47.9997V45.8666C47.9997 50.3471 47.9997 52.5873 47.1277 54.2986C46.3607 55.8039 45.1369 57.0277 43.6316 57.7947C41.9203 58.6666 39.6801 58.6666 35.1997 58.6666H33.333V54C33.333 50.6863 30.6467 48 27.333 48C24.0193 48 21.333 50.6863 21.333 54V58.6666H18.133C13.6526 58.6666 11.4124 58.6666 9.70108 57.7947C8.19579 57.0277 6.97194 55.8039 6.20496 54.2986C5.33301 52.5873 5.33301 50.3471 5.33301 45.8666V41.3333H9.33301C13.0149 41.3333 15.9997 38.3485 15.9997 34.6666C15.9997 30.9847 13.0149 28 9.33301 28H5.33301C5.33301 24.2724 5.33301 22.4087 5.94197 20.9385C6.75392 18.9783 8.31132 17.4209 10.2715 16.6089C11.7417 16 13.6055 16 17.333 16H19.9997V12Z" stroke="#5E5E5E" stroke-width="2" stroke-linecap="round" stroke-linejoin="round"/>
</svg>
